<?xml version="1.0" encoding="UTF-8"?>
<svg width="187px" height="62px" viewBox="0 0 187 62" version="1.1" xmlns="http://www.w3.org/2000/svg" xmlns:xlink="http://www.w3.org/1999/xlink">
    <!-- Generator: Sketch 40.3 (33839) - http://www.bohemiancoding.com/sketch -->
    <title>d-logo</title>
    <desc>Created with Sketch.</desc>
    <defs></defs>
    <g id="Page-1" stroke="none" stroke-width="1" fill="none" fill-rule="evenodd">
        <g id="d-logo">
            <g id="Campaigns">
                <g id="Desktop-HD">
                    <g id="d-logo">
                        <rect id="Rectangle" fill="#111111" x="0" y="0" width="186.756098" height="62"></rect>
                        <g id="Logo" transform="translate(24.195122, 18.146341)">
                            <path d="M0.375025613,14.3011203 L0.375025613,0.432038118 L5.70303066,0.432038118 C7.78996898,0.432038118 9.34593504,1.00641703 10.3709289,2.15517484 C11.3959228,3.30373642 11.9082272,5.04571167 11.9082272,7.38070812 C11.9082272,8.64877665 11.719048,9.76613687 11.3404969,10.7325926 C10.9617533,11.6992447 10.4124983,12.4777077 9.69215431,13.0675892 C9.15040481,13.5071548 8.53475419,13.8227002 7.84539486,14.014029 C7.15584302,14.2053578 6.18935426,14.3011203 4.94592856,14.3011203 L0.375025613,14.3011203 L0.375025613,14.3011203 L0.375025613,14.3011203 Z M3.11764436,11.7965771 L5.36143019,11.7965771 C6.66028178,11.7965771 7.60059724,11.4500267 8.18237651,10.7563371 C8.76415578,10.0624513 9.05494916,8.93743784 9.05494916,7.38070812 C9.05494916,5.83025792 8.78417066,4.6911156 8.24242116,3.9628887 C7.70067174,3.23485804 6.85427235,2.87064648 5.70303066,2.87064648 L3.11764436,2.87064648 L3.11764436,11.7965771 L3.11764436,11.7965771 L3.11764436,11.7965771 Z" id="The-D" fill="#FFFFFF"></path>
                            <polyline id="Fill-2" fill="#FFFFFF" points="14.1222446 14.2988528 14.1222446 0.432038118 24.0004847 0.432038118 24.0004847 2.84199461 16.8826948 2.84199461 16.8826948 5.79798293 23.3905149 5.79798293 23.3905149 8.17026851 16.8826948 8.17026851 16.8826948 11.7382128 24.3333705 11.7382128 24.3333705 14.2988528 14.1222446 14.2988528"></polyline>
                            <path d="M26.2163877,10.0153577 L28.9768379,10.0153577 C29.0815141,10.774858 29.3861142,11.3381556 29.8908306,11.7054469 C30.3955469,12.072542 31.1250092,12.2559914 32.0790252,12.2559914 C32.8914203,12.2559914 33.5038915,12.1086432 33.9162466,11.8135546 C34.3286016,11.5186621 34.5348753,11.0825037 34.5348753,10.5048832 C34.5348753,9.6639589 33.349956,8.96743971 30.9803098,8.41512935 C30.9495226,8.40885086 30.9218142,8.40276859 30.8971846,8.3962939 C30.8356103,8.38393314 30.7403627,8.36176224 30.6110568,8.33036983 C29.3430122,8.0480343 28.4382557,7.73116712 27.8967873,7.37957206 C27.4167005,7.06584412 27.0503339,6.64381233 26.7980719,6.11347671 C26.5456175,5.58314109 26.4195827,4.95705861 26.4195827,4.23522925 C26.4195827,2.88594399 26.8686898,1.85195631 27.7674814,1.1334624 C28.6660804,0.414772289 29.9647196,0.0555253349 31.6635914,0.0555253349 C33.2516296,0.0555253349 34.4933127,0.438316601 35.388833,1.20389913 C36.2843534,1.96967787 36.7567432,3.04918456 36.8060027,4.44241919 L34.1194415,4.44241919 C34.0701822,3.7708177 33.8177278,3.25951374 33.3622708,2.90791868 C32.9068139,2.55651983 32.257398,2.38072231 31.4142157,2.38072231 C30.6818671,2.38072231 30.1171159,2.52669704 29.7201544,2.8184503 C29.323193,3.11039977 29.1246161,3.52615307 29.1246161,4.06590641 C29.1246161,4.80009653 29.8969879,5.3492676 31.4419242,5.71322341 C31.8604366,5.81367914 32.1865877,5.89216018 32.4205698,5.94866652 C33.4115302,6.20608433 34.1148235,6.40679959 34.5302572,6.5512047 C34.9456909,6.69560982 35.3072471,6.85551493 35.6151183,7.03131246 C36.1690941,7.34504041 36.5845278,7.76079375 36.8614195,8.27857238 C37.1385036,8.79635101 37.2768532,9.41615503 37.2768532,10.1377882 C37.2768532,11.5814469 36.7998453,12.7001941 35.8458293,13.4940298 C34.8918134,14.2878655 33.5469936,14.6847833 31.8113697,14.6847833 C30.100183,14.6847833 28.7584418,14.2800174 27.7859536,13.4702893 C26.813273,12.6607573 26.2902768,11.5092443 26.2163877,10.0153577" id="Fill-3" fill="#FFFFFF"></path>
                            <polyline id="Fill-4" fill="#FFFFFF" points="42.649783 14.2988528 42.649783 2.90791868 38.6153233 2.90791868 38.6153233 0.432038118 49.4541215 0.432038118 49.4541215 2.90791868 45.4473702 2.90791868 45.4473702 14.2988528 42.649783 14.2988528"></polyline>
                            <polygon id="Fill-5" fill="#FFFFFF" points="51.7294821 0.432038118 54.5268769 0.432038118 54.5268769 14.2986566 51.7294821 14.2986566"></polygon>
                            <polyline id="Fill-6" fill="#FFFFFF" points="57.066237 14.2988528 57.066237 0.432038118 59.9929377 0.432038118 65.5138381 9.95885139 65.5138381 0.432038118 68.2744808 0.432038118 68.2744808 14.2988528 65.3845322 14.2988528 59.8266872 4.77184335 59.8266872 14.2988528 57.066237 14.2988528"></polyline>
                            <path d="M70.4901913,7.37957206 C70.4901913,5.13893841 71.088616,3.36134288 72.2858501,2.04658929 C73.4828918,0.731835685 75.0970991,0.0743607842 77.128279,0.0743607842 C79.1594595,0.0743607842 80.7765533,0.733209103 81.9799446,2.05129815 C83.1831438,3.36919099 83.7850322,5.14541309 83.7850322,7.37957206 C83.7850322,9.61392725 83.1831438,11.389757 81.9799446,12.707846 C80.7765533,14.0257388 79.1594595,14.6847833 77.128279,14.6847833 C75.0970991,14.6847833 73.4828918,14.0257388 72.2858501,12.707846 C71.088616,11.389757 70.4901913,9.61392725 70.4901913,7.37957206 L70.4901913,7.37957206 L70.4901913,7.37957206 Z M73.3430029,7.37957206 C73.3430029,8.90465488 73.6753113,10.08913 74.3401208,10.9333897 C75.0049301,11.7776494 75.9343163,12.199485 77.128279,12.199485 C78.334557,12.199485 79.2731796,11.7776494 79.9441466,10.9333897 C80.6151129,10.08913 80.9505004,8.90465488 80.9505004,7.37957206 C80.9505004,5.85448928 80.6151129,4.6700142 79.9441466,3.82575444 C79.2731796,2.98169086 78.334557,2.55965907 77.128279,2.55965907 C75.9343163,2.55965907 75.0049301,2.98012124 74.3401208,3.82104557 C73.6753113,4.6621661 73.3430029,5.8482108 73.3430029,7.37957206 L73.3430029,7.37957206 L73.3430029,7.37957206 Z" id="Fill-7" fill="#FFFFFF"></path>
                            <polyline id="Fill-8" fill="#FFFFFF" points="86.0007429 14.2988528 86.0007429 0.432038118 88.7981375 0.432038118 88.7981375 11.7382128 95.4364178 11.7382128 95.4364178 14.2988528 86.0007429 14.2988528"></polyline>
                            <path d="M96.8385788,7.37957206 C96.8385788,5.13893841 97.4370035,3.36134288 98.6342379,2.04658929 C99.8312795,0.731835685 101.445487,0.0743607842 103.476667,0.0743607842 C105.507847,0.0743607842 107.125133,0.733209103 108.328333,2.05129815 C109.531531,3.36919099 110.133419,5.14541309 110.133419,7.37957206 C110.133419,9.61392725 109.531531,11.389757 108.328333,12.707846 C107.125133,14.0257388 105.507847,14.6847833 103.476667,14.6847833 C101.445487,14.6847833 99.8312795,14.0257388 98.6342379,12.707846 C97.4370035,11.389757 96.8385788,9.61392725 96.8385788,7.37957206 L96.8385788,7.37957206 L96.8385788,7.37957206 Z M99.6913901,7.37957206 C99.6913901,8.90465488 100.023699,10.08913 100.688508,10.9333897 C101.353317,11.7776494 102.282511,12.199485 103.476667,12.199485 C104.682945,12.199485 105.621567,11.7776494 106.292534,10.9333897 C106.963501,10.08913 107.298888,8.90465488 107.298888,7.37957206 C107.298888,5.85448928 106.963501,4.6700142 106.292534,3.82575444 C105.621567,2.98169086 104.682945,2.55965907 103.476667,2.55965907 C102.282511,2.55965907 101.353317,2.98012124 100.688508,3.82104557 C100.023699,4.6621661 99.6913901,5.8482108 99.6913901,7.37957206 L99.6913901,7.37957206 L99.6913901,7.37957206 Z" id="Fill-9" fill="#FFFFFF"></path>
                            <path d="M122.513691,12.6607573 C122.008974,13.3572766 121.434987,13.8691692 120.79192,14.1952579 C120.14847,14.521739 119.393223,14.6847833 118.525219,14.6847833 C116.623344,14.6847833 115.083026,14.0118084 113.904457,12.6656624 C112.725695,11.3193202 112.136506,9.55114242 112.136506,7.36073661 C112.136506,5.15169158 112.724156,3.38488719 113.899839,2.06071587 C115.07533,0.736544548 116.641817,0.0743607842 118.599108,0.0743607842 C120.303945,0.0743607842 121.694945,0.490114087 122.772302,1.32162069 C123.849274,2.1533235 124.489454,3.29718463 124.692649,4.7530079 L121.839838,4.7530079 C121.667237,4.03137475 121.314917,3.48220369 120.782685,3.1056909 C120.250068,2.72898191 119.556203,2.54082363 118.700706,2.54082363 C117.561967,2.54082363 116.667986,2.96599465 116.018763,3.81633671 C115.369347,4.66687496 115.044735,5.84193231 115.044735,7.34190117 C115.044735,8.84814854 115.383201,10.0281109 116.060133,10.881396 C116.737064,11.7350735 117.666643,12.1618141 118.848484,12.1618141 C119.734768,12.1618141 120.476352,11.8951748 121.073431,11.3615038 C121.670508,10.8284213 122.039761,10.0971742 122.181382,9.16815496 L119.097667,9.16815496 L119.097667,6.79586934 L124.729593,6.79586934 L124.729593,14.2988528 L122.855428,14.2988528 L122.513691,12.6607573" id="Fill-10" fill="#FFFFFF"></path>
                            <polygon id="Fill-11" fill="#FFFFFF" points="130.559712 14.2988528 130.559712 9.13048406 125.620303 0.432038118 129.045563 0.432038118 131.953791 6.40993884 134.640352 0.432038118 137.834901 0.432038118 133.357107 9.13048406 133.357107 14.2988528"></polygon>
                            <polyline id="Fill-12" fill="#DFDFDF" points="0.177025943 20.1272472 2.89937708 20.1272472 2.89937708 20.8114056 0.840295973 20.8114056 0.840295973 22.0616086 2.89937708 22.0616086 2.89937708 22.7381151 0.840295973 22.7381151 0.840295973 24.4601853 2.89937708 24.4601853 2.89937708 25.1364957 0.177025943 25.1364957 0.177025943 20.1272472"></polyline>
                            <polyline id="Fill-13" fill="#DFDFDF" points="5.8256929 20.1272472 6.56477621 20.1272472 7.66291435 21.9536971 8.7481603 20.1272472 9.49667217 20.1272472 8.03697781 22.5837037 9.53919691 25.1364957 8.79588034 25.1364957 7.6638764 23.2119444 6.5203273 25.1364957 5.77181543 25.1364957 7.29000532 22.5815455 5.8256929 20.1272472"></polyline>
                            <path d="M12.6625503,20.1272472 L13.6496623,20.1272472 C14.2074865,20.1272472 14.6573633,20.2610573 14.9992928,20.5282853 C15.3412222,20.7955132 15.5122831,21.142988 15.5122831,21.570121 C15.5122831,22.0001972 15.3316012,22.3606213 14.9704298,22.6515898 C14.6092584,22.9425583 14.0610552,23.0840203 13.3258203,23.0761722 L13.3258203,25.1364957 L12.6625503,25.1364957 L12.6625503,20.1272472 L12.6625503,20.1272472 L12.6625503,20.1272472 Z M13.3258203,20.7248803 L13.3258203,22.4785391 C13.8295746,22.4732416 14.2030609,22.4006467 14.4460866,22.2603618 C14.6889201,22.1200769 14.8103368,21.8952288 14.8103368,21.5858172 C14.8103368,21.3527286 14.7185527,21.1508361 14.5347921,20.9805323 C14.350839,20.8100322 13.9479126,20.7248803 13.3258203,20.7248803 L13.3258203,20.7248803 L13.3258203,20.7248803 Z" id="Fill-14" fill="#DFDFDF"></path>
                            <polyline id="Fill-15" fill="#DFDFDF" points="18.5315376 20.1272472 21.2538887 20.1272472 21.2538887 20.8114056 19.1946152 20.8114056 19.1946152 22.0616086 21.2538887 22.0616086 21.2538887 22.7381151 19.1946152 22.7381151 19.1946152 24.4601853 21.2538887 24.4601853 21.2538887 25.1364957 18.5315376 25.1364957 18.5315376 20.1272472"></polyline>
                            <path d="M24.2808399,20.1272472 L25.3451122,20.1272472 C25.8746507,20.1272472 26.3058628,20.2614498 26.6387485,20.5302473 C26.9718267,20.7986525 27.1382695,21.1427918 27.1382695,21.5618806 C27.1382695,21.897387 27.0305146,22.1934567 26.8151972,22.4504821 C26.5996874,22.7071151 26.2639153,22.8880139 25.8074963,22.9927861 L27.2346717,25.1364957 L26.4649937,25.1364957 L25.1020864,23.0761722 L24.9518067,23.0761722 L24.9518067,25.1364957 L24.2808399,25.1364957 L24.2808399,20.1272472 L24.2808399,20.1272472 L24.2808399,20.1272472 Z M24.9518067,20.7327284 L24.9518067,22.4785391 C25.9414202,22.4995328 26.4365156,22.2071909 26.4365156,21.6017097 C26.4365156,21.3892223 26.3785973,21.2157792 26.2629532,21.0805956 C26.1471167,20.9458044 25.9929887,20.8539816 25.8001843,20.8055196 C25.6071875,20.7570575 25.3245233,20.7327284 24.9518067,20.7327284 L24.9518067,20.7327284 L24.9518067,20.7327284 Z" id="Fill-16" fill="#DFDFDF"></path>
                            <polyline id="Fill-17" fill="#DFDFDF" points="30.1492499 20.1272472 33.1533032 20.1272472 33.1533032 20.8114056 31.9810836 20.8114056 31.9810836 25.1364957 31.3178136 25.1364957 31.3178136 20.8114056 30.1492499 20.8114056 30.1492499 20.1272472"></polyline>
                            <path d="M39.0415325,20.6856398 L38.497755,21.1298425 C38.35421,20.9777854 38.223942,20.8645765 38.1071433,20.7898234 C37.9905371,20.7150702 37.8217852,20.6777916 37.6014649,20.6777916 C37.3601709,20.6777916 37.1644802,20.733317 37.0145854,20.8441714 C36.8644982,20.9554183 36.7894546,21.0984501 36.7894546,21.273659 C36.7894546,21.4251274 36.8550697,21.5591337 36.9861073,21.6754819 C37.1169526,21.7916338 37.3403517,21.9189693 37.6559196,22.0572921 C37.9714876,22.1954187 38.2173997,22.3241277 38.3930788,22.4434189 C38.5689502,22.5625138 38.7132648,22.6941658 38.826215,22.8381785 C38.9391653,22.9823874 39.0230602,23.1342482 39.0782846,23.2941533 C39.1333166,23.4538622 39.161025,23.6225964 39.161025,23.8009446 C39.161025,24.2172865 39.0124772,24.572217 38.7157662,24.8655399 C38.4186706,25.1588628 38.0594234,25.3054261 37.6378322,25.3054261 C37.2264393,25.3054261 36.8633437,25.1908438 36.5485454,24.9616791 C36.2335547,24.7323183 35.9912985,24.388179 35.8215845,23.9294573 L36.4925513,23.7365901 C36.7367317,24.3002802 37.1107952,24.5820271 37.6147418,24.5820271 C37.8589222,24.5820271 38.0621172,24.5076664 38.223942,24.3585524 C38.3859592,24.2096346 38.4669678,24.0216725 38.4669678,23.7940775 C38.4669678,23.6583053 38.4244431,23.5217483 38.3395861,23.3844065 C38.2547291,23.2472609 38.1490908,23.1342482 38.023056,23.0455646 C37.8970212,22.9566848 37.6963277,22.8546595 37.4213603,22.7394885 C37.1462003,22.6245138 36.9345389,22.519153 36.7861835,22.4236024 C36.637828,22.3280517 36.5094842,22.2142542 36.401152,22.0818175 C36.2928199,21.9495769 36.213543,21.817925 36.1631291,21.6868616 C36.1129077,21.5559945 36.0877006,21.4157097 36.0877006,21.2665957 C36.0877006,20.9075449 36.229129,20.6018613 36.5117933,20.3491523 C36.7946499,20.0964433 37.1377339,19.9698927 37.54143,19.9698927 C37.8088932,19.9698927 38.0800122,20.0289497 38.3549797,20.1466712 C38.6301396,20.2647852 38.8589264,20.4443106 39.0415325,20.6856398" id="Fill-18" fill="#DFDFDF"></path>
                            <polygon id="Fill-19" fill="#DFDFDF" points="46.6143945 20.1272472 47.4482123 20.1272472 47.4482123 25.1364957 46.6143945 25.1364957"></polygon>
                            <polyline id="Fill-20" fill="#DFDFDF" points="50.4510469 19.9265319 54.0835423 23.7338433 54.0835423 20.1272472 54.7545091 20.1272472 54.7545091 25.3686034 51.1220137 21.5781654 51.1220137 25.1364957 50.4510469 25.1364957 50.4510469 19.9265319"></polyline>
                            <polyline id="Fill-21" fill="#DFDFDF" points="62.489196 20.1272472 63.152466 20.1272472 63.152466 24.4601853 64.752819 24.4601853 64.752819 25.1364957 62.489196 25.1364957 62.489196 20.1272472"></polyline>
                            <path d="M67.4634325,20.1350953 L68.1345917,20.1350953 L68.1345917,23.2137102 C68.1345917,23.6700774 68.2417694,24.0224573 68.4565096,24.2714384 C68.6710573,24.5204195 68.9750801,24.6450082 69.3683856,24.6450082 C69.7591896,24.6450082 70.0632124,24.5304258 70.2804541,24.3008688 C70.4976957,24.071508 70.6062203,23.7485585 70.6062203,23.3318242 L70.6062203,20.1350953 L71.2771871,20.1350953 L71.2771871,23.2845394 C71.2771871,23.8980649 71.1057413,24.388179 70.7622725,24.7550778 C70.4191885,25.1221729 69.9621922,25.3054261 69.3916684,25.3054261 C68.80806,25.3054261 68.3408654,25.119426 67.9898923,24.7472297 C67.6389191,24.3750334 67.4634325,23.8258624 67.4634325,23.0997165 L67.4634325,20.1350953" id="Fill-22" fill="#DFDFDF"></path>
                            <polyline id="Fill-23" fill="#DFDFDF" points="74.2000393 20.1272472 74.9389302 20.1272472 76.0372605 21.9536971 77.122507 20.1272472 77.8710186 20.1272472 76.4113246 22.5837037 77.913351 25.1364957 77.1700345 25.1364957 76.0380302 23.2119444 74.8944814 25.1364957 74.1459694 25.1364957 75.6641596 22.5815455 74.2000393 20.1272472"></polyline>
                            <path d="M81.0480574,20.1350953 L81.7188316,20.1350953 L81.7188316,23.2137102 C81.7188316,23.6700774 81.826394,24.0224573 82.040942,24.2714384 C82.2554892,24.5204195 82.5595123,24.6450082 82.9530104,24.6450082 C83.3434297,24.6450082 83.647452,24.5304258 83.8646939,24.3008688 C84.0819351,24.071508 84.1906521,23.7485585 84.1906521,23.3318242 L84.1906521,20.1350953 L84.861812,20.1350953 L84.861812,23.2845394 C84.861812,23.8980649 84.6899812,24.388179 84.3468974,24.7550778 C84.0038129,25.1221729 83.5468169,25.3054261 82.975908,25.3054261 C82.3922998,25.3054261 81.9251048,25.119426 81.5741319,24.7472297 C81.2235438,24.3750334 81.0480574,23.8258624 81.0480574,23.0997165 L81.0480574,20.1350953" id="Fill-24" fill="#DFDFDF"></path>
                            <path d="M88.0775266,20.1272472 L89.141799,20.1272472 C89.6713372,20.1272472 90.1025495,20.2614498 90.4356271,20.5302473 C90.7685134,20.7986525 90.9349562,21.1427918 90.9349562,21.5618806 C90.9349562,21.897387 90.8272009,22.1934567 90.611884,22.4504821 C90.3965663,22.7071151 90.0604091,22.8880139 89.6041829,22.9927861 L91.0313579,25.1364957 L90.261488,25.1364957 L88.8987726,23.0761722 L88.7484929,23.0761722 L88.7484929,25.1364957 L88.0775266,25.1364957 L88.0775266,20.1272472 L88.0775266,20.1272472 L88.0775266,20.1272472 Z M88.7484929,20.7327284 L88.7484929,22.4785391 C89.7382995,22.4995328 90.2332024,22.2071909 90.2332024,21.6017097 C90.2332024,21.3892223 90.1752838,21.2157792 90.0596394,21.0805956 C89.9439958,20.9458044 89.7896748,20.8539816 89.5968707,20.8055196 C89.4040665,20.7570575 89.1214025,20.7327284 88.7484929,20.7327284 L88.7484929,20.7327284 L88.7484929,20.7327284 Z" id="Fill-25" fill="#DFDFDF"></path>
                            <polyline id="Fill-26" fill="#DFDFDF" points="93.5605201 20.1272472 94.3028748 20.1272472 95.5099218 22.1440137 96.7036925 20.1272472 97.4473938 20.1272472 95.8354959 22.8403367 95.8354959 25.1364957 95.1647217 25.1364957 95.1647217 22.8481848 93.5605201 20.1272472"></polyline>
                            <polyline id="Fill-27" fill="#DFDFDF" points="104.353715 20.1272472 107.357576 20.1272472 107.357576 20.8114056 106.185163 20.8114056 106.185163 25.1364957 105.522086 25.1364957 105.522086 20.8114056 104.353715 20.8114056 104.353715 20.1272472"></polyline>
                            <path d="M110.542119,20.1272472 L111.606391,20.1272472 C112.13593,20.1272472 112.567142,20.2614498 112.900219,20.5302473 C113.233106,20.7986525 113.399548,21.1427918 113.399548,21.5618806 C113.399548,21.897387 113.291793,22.1934567 113.076476,22.4504821 C112.861159,22.7071151 112.525194,22.8880139 112.068775,22.9927861 L113.49595,25.1364957 L112.72608,25.1364957 L111.363365,23.0761722 L111.213085,23.0761722 L111.213085,25.1364957 L110.542119,25.1364957 L110.542119,20.1272472 L110.542119,20.1272472 L110.542119,20.1272472 Z M111.213085,20.7327284 L111.213085,22.4785391 C112.202891,22.4995328 112.697795,22.2071909 112.697795,21.6017097 C112.697795,21.3892223 112.639876,21.2157792 112.524232,21.0805956 C112.408588,20.9458044 112.254267,20.8539816 112.061463,20.8055196 C111.868659,20.7570575 111.585994,20.7327284 111.213085,20.7327284 L111.213085,20.7327284 L111.213085,20.7327284 Z" id="Fill-28" fill="#DFDFDF"></path>
                            <path d="M118.352619,19.93438 L120.672043,25.1364957 L119.968942,25.1364957 L119.398804,23.8547041 L117.314131,23.8547041 L116.750534,25.1364957 L116.052436,25.1364957 L118.352619,19.93438 L118.352619,19.93438 L118.352619,19.93438 Z M118.350887,21.4979185 L117.564853,23.2845394 L119.145194,23.2845394 L118.350887,21.4979185 L118.350887,21.4979185 L118.350887,21.4979185 Z" id="Fill-29" fill="#DFDFDF"></path>
                            <polyline id="Fill-30" fill="#DFDFDF" points="122.380151 20.1350953 123.08864 20.1350953 124.631267 23.6830268 126.18544 20.1350953 126.899701 20.1350953 124.622609 25.3054261 122.380151 20.1350953"></polyline>
                            <polyline id="Fill-31" fill="#DFDFDF" points="129.637253 20.1272472 132.359796 20.1272472 132.359796 20.8114056 130.300523 20.8114056 130.300523 22.0616086 132.359796 22.0616086 132.359796 22.7381151 130.300523 22.7381151 130.300523 24.4601853 132.359796 24.4601853 132.359796 25.1364957 129.637253 25.1364957 129.637253 20.1272472"></polyline>
                            <polyline id="Fill-32" fill="#DFDFDF" points="135.571278 20.1272472 136.234548 20.1272472 136.234548 24.4601853 137.834901 24.4601853 137.834901 25.1364957 135.571278 25.1364957 135.571278 20.1272472"></polyline>
                        </g>
                    </g>
                </g>
            </g>
        </g>
    </g>
</svg>